# xmcd CD database file
#
# Track frame offsets:
#	150
#	14782
#	61477
#	116905
#	165755
#	224725
#
# Disc length: 3229 seconds
#
# Revision: 0
# Processed by: cddbd v1.5.1PL2 Copyright (c) Steve Scherf et al.
# Submitted via: CDex 1.51
#
DISCID=570c9b06
DTITLE=菊池志穂・池澤春菜・緑川光・他 - トゥルー・ラブストーリー　ドラマCD Vol.1「そよ風のオルゴール」
DYEAR=1900
DGENRE=ゲーム関連
TTITLE0=桂木綾音（菊池志穂）/明日 勇気をだして（ショートバージョン）
TTITLE1=SCENE 1 始まりはいつも・・・・
TTITLE2=SCENE 2 風吹く丘で・・・・
TTITLE3=SCENE 3 言葉、言えずに・・・・
TTITLE4=SCENE 4 想い、風に乗って・・・
TTITLE5=天野みどり（池澤春菜）/ル・ル・ルンGIRL（ショートバージョン）
EXTD=
EXTT0=
EXTT1=
EXTT2=
EXTT3=
EXTT4=
EXTT5=
PLAYORDER=
